# xmcd
#
# Track frame offsets:
#	150
#	22553
#	38817
#	65082
#	96128
#	119846
#	140347
#	161642
#
# Disc length: 2566 seconds
#
# Revision: 1
# Processed by: cddbd v1.5.1PL0 Copyright (c) Steve Scherf et al.
# Submitted via: audiograbber 1.83.01
#
DISCID=670a0408
DTITLE=Savoy Brown - Wire Fire
DYEAR=1975
DGENRE=
TTITLE0=Put Your hands Together
TTITLE1=Stranger Blues
TTITLE2=Here Comes The Music
TTITLE3=Ooh What A Feeling
TTITLE4=Hero To Zero
TTITLE5=Deep Water
TTITLE6=Can't Get On
TTITLE7=Born into Pain
EXTD=
EXTT0=
EXTT1=
EXTT2=
EXTT3=
EXTT4=
EXTT5=
EXTT6=
EXTT7=
PLAYORDER=
